<svg width="38" height="52" fill="none" xmlns="http://www.w3.org/2000/svg">
  <path d="M35.22 37.25c-.69-3.43-3.91-4.01-3.92-4.02l-7.86-1.95v-.27h6c1.24 0 2.25-1 2.25-2.25V17.32c.1-.42.1-.87 0-1.3v-4.17a.76.76 0 10-1.53 0v2.19c-.4-.24-.86-.41-1.35-.5a1.99 1.99 0 00-1.68-1.53c-.87-.12-1.53-.62-1.96-1.51a1.3 1.3 0 00-1.06-.73 1.3 1.3 0 00-1.17.53 13.94 13.94 0 01-11.23 5.77c-.48 0-.8-.02-.92-.02a2.01 2.01 0 00-2.13 2v1.76a10.33 10.33 0 005.38 9.04v.63H8.07a.72.72 0 01-.72-.72V11.65A10.12 10.12 0 0117.4 1.52c1.95.01 4.22.57 5.76 1.42.97.54 1.58.11 2.54.11 2.35 0 4.24 2.42 4.47 4.6v.65c0 .73.83.79.76.76.42 0 .77-.34.77-.76 0-.14 0-.67-.02-.8-.3-3.02-2.89-5.97-5.98-5.97-1.2 0-1.4.3-1.8.08C22.14.64 19.6 0 17.4 0A11.64 11.64 0 005.83 11.65v17.11c0 1.24 1 2.25 2.24 2.25h5.97v.27l-7.82 1.94-.03.01-.57.17a5.06 5.06 0 00-3.34 3.85C-.06 48.9.04 48.4.04 48.45-.23 50.41.75 52 3.13 52h8.24a.76.76 0 100-1.52H8.51v-7.19a.76.76 0 10-1.53 0v7.19H3.13c-1 0-1.6-.33-1.6-1.4 0-.51-.03 0 2.24-11.53a3.57 3.57 0 012.3-2.7l.53-.15 4.5-1.12c5 5.9 4.7 5.58 4.99 5.86 1.67 1.63 4.05 1.51 5.61-.33l4.7-5.52 4.48 1.1c.13.07 2.36.46 2.84 2.86 2.25 11.42 2.25 11.02 2.24 11.54 0 1.04-.57 1.39-1.6 1.39h-3.83v-7.19a.76.76 0 10-1.52 0v7.19H14.93a.76.76 0 100 1.52h19.42c1.89 0 3.12-1.04 3.14-2.9 0-.87-.05-.46-2.27-11.85zm-6.36-22.14c.63.2 1.12.61 1.3 1.13v.87c-.18.52-.67.94-1.3 1.13V15.1zm0 4.83v-.14c.47-.09.92-.26 1.3-.49v9.45c0 .4-.32.72-.72.72h-6v-.59a10.09 10.09 0 005.42-8.95zm-15.96 6.2a8.8 8.8 0 01-2.72-6.33c.05-1.66-.1-1.86.16-2.11.1-.09.22-.14.36-.13a15.3 15.3 0 0013.26-6.1 3.9 3.9 0 002.97 2.05c.23.03.4.22.4.45v5.97c0 7.58-9.07 11.33-14.43 6.2zm7.64 11.99c-1.06 1.24-2.54 1.24-3.6-.01l-1.6-1.88h6.8l-1.6 1.89zm2.9-3.4h-9.38l-1.31-1.55 2.24-.56c.34-.08.58-.4.58-.75v-2.35c2.1.7 4.3.69 6.35.02.02 2.43-.03 2.38.04 2.6.09.23.28.42.54.48l2.26.56-1.32 1.54z" fill="#AE7C78"/>
</svg>
