<svg width="52" height="52" fill="none" xmlns="http://www.w3.org/2000/svg">
  <g clip-path="url(#clip0)" fill="#AE7C78">
    <path d="M35.7 13.9a4.08 4.08 0 003.26-1.66l3.83-5.27a.76.76 0 00-.5-1.2c-.06 0-1.56-.26-3.4-.28a24.7 24.7 0 00-1.31-3.15.76.76 0 00-1.3-.1l-3.82 5.28a4 4 0 00.28 5.06 58.7 58.7 0 00-2.72 3.5v-.66a.76.76 0 10-1.53 0v2.9c-.6.96-1.2 1.98-1.73 3v-5.58l2.22-2.23a.76.76 0 10-1.08-1.07l-1.14 1.14v-2.36a4.02 4.02 0 003.26-3.95V.77a.76.76 0 00-1.1-.69C28.85.11 27.5.79 26 1.85A24.7 24.7 0 0023.08.08a.76.76 0 00-1.1.68v6.51c0 1.96 1.4 3.6 3.26 3.95v3.99l-1.96-1.96a.76.76 0 00-1.08 1.08l3.04 3.03v3.96a50.95 50.95 0 00-5.98-8.74 3.99 3.99 0 00.28-5.06l-3.83-5.27a.76.76 0 00-1.29.1c-.03.06-.73 1.4-1.32 3.14a24.6 24.6 0 00-3.4.28.76.76 0 00-.49 1.2l3.83 5.27a4 4 0 005 1.26l.95 1.15h-.67a.76.76 0 000 1.53h1.84a45.2 45.2 0 013.45 5.32 25.06 25.06 0 00-4.12-3.27 25.01 25.01 0 00-8.85-3.57.76.76 0 00-.87.76c0 .12.02 3.02 1.47 7.07a30.98 30.98 0 009.93 13.65v2.79l-3.23 12.11a.76.76 0 00.73.96h14.66a.76.76 0 00.73-.96l-3.23-12.11v-2.8a30.98 30.98 0 009.93-13.64 22.91 22.91 0 001.47-7.07.76.76 0 00-.87-.76c-.1.02-2.51.39-5.68 1.85a25.96 25.96 0 00-7.3 5 45.24 45.24 0 013.46-5.33h1.84a.76.76 0 000-1.53h-.67l.95-1.15c.54.26 1.14.4 1.74.4zm5.1-6.78l-1.15 1.59c-.06-.53-.16-1.08-.3-1.68.53.02 1.03.05 1.45.1zM12.35 8.71L11.2 7.12c.42-.04.92-.07 1.45-.1-.14.6-.24 1.16-.3 1.69zm5.4 3.19a2.48 2.48 0 01-3.48-.55c-1.1-1.5.07-5.06.97-7.16L18.3 8.4a2.5 2.5 0 01-.56 3.49zM28.5 2.05v1.96c-.35-.39-.75-.78-1.22-1.18.44-.3.86-.56 1.22-.78zM23.5 7.27V2.05c1.97 1.17 5 3.37 5 5.22a2.5 2.5 0 01-5 0zM12.7 22.04c-.9-2.49-1.23-4.54-1.34-5.67 1.42.34 4.27 1.21 7.31 3.15 2.52 1.6 4.66 3.6 6.36 5.96A25.05 25.05 0 0129.14 35h-1.77a22.43 22.43 0 00-5.7-10.82.76.76 0 10-1.1 1.06c2.54 2.63 4.3 5.9 5.23 9.76h-3.6a29.5 29.5 0 01-9.5-12.97zm16.6 14.5v1.72h-6.6v-1.73h6.6zm3.04 13.94H29.1l-.13-.97a.76.76 0 10-1.51.2l.1.77h-7.9l2.84-10.7h3.64l.89 6.67a.76.76 0 101.5-.2l-.86-6.46h1.8l2.86 10.69zm3.93-32.57a24.3 24.3 0 014.37-1.54 24.2 24.2 0 01-1.34 5.67 29.32 29.32 0 01-8.74 12.34 26.8 26.8 0 00-3.64-8.83 23.8 23.8 0 019.35-7.64zm-2.58-9.5l3.07-4.22c.9 2.1 2.06 5.65.97 7.16a2.48 2.48 0 01-3.49.55 2.5 2.5 0 01-.55-3.49z"/>
    <path d="M19.13 21.96c-.54-.4-1.1-.8-1.68-1.16a.76.76 0 10-.8 1.3c.54.33 1.06.7 1.57 1.07a.76.76 0 001.06-.15.76.76 0 00-.15-1.06z"/>
  </g>
  <defs>
    <clipPath id="clip0">
      <path fill="#fff" d="M0 0h52v52H0z"/>
    </clipPath>
  </defs>
</svg>
