<svg width="100" height="33" fill="none" xmlns="http://www.w3.org/2000/svg">
  <g clip-path="url(#clip0)">
    <path d="M9.72 17.2c-2.01 2.54-5.98 2.6-8.23.33-2.13-2.15-1.86-5.57.05-7.7.93-2.81 5-2.46 7.15-.74a5.74 5.74 0 011.03 8.1zM13.5 9.48c-1.97 0-2.78-1.23-2.95-2.72-.63-1.87.22-4.06 2.3-4.6a3.63 3.63 0 014.34 4.63 3.85 3.85 0 01-3.69 2.7z" fill="#FFDCDC"/>
    <path d="M19.73 31.12l.12-.23-2.47-1.6c-.7-.54-1.35-1.17-1.91-1.86l-2.32-2.54c-.07-.08-.15-.16-.16-.23-.77-.8-1.4-1.73-1.87-2.73-.5-.78-.94-1.59-1.34-2.42-.04-.1.05-.25.08-.38.17-.03.33-.1.48-.18.49-.43.84-.99 1.03-1.61.78-2.02 1.46-4.06 1.39-6.27a1.5 1.5 0 00-.1-.35c-.11.06-.2.13-.3.21-.52.7-1.05 1.38-1.54 2.1a8.82 8.82 0 00-1.5 3.39c-.1.58-.12 1.17-.18 1.76a1.2 1.2 0 01-.09-.15c-.31-.75-.61-1.5-.94-2.24a.43.43 0 01.11-.53c.38-.35.72-.74 1.02-1.16.81-1.33 1.4-2.8 1.75-4.32.12-.55.2-1.1.24-1.66 0-.17-.12-.36-.18-.54-.18.07-.34.17-.49.29a29 29 0 00-1.15 1.5 8.13 8.13 0 00-1.55 3.2c-.1.57-.15 1.15-.22 1.72H7.6l-.68-2.7.2.28c.07-.15.16-.3.26-.44.44-.56 1.01-1.05 1.32-1.67.45-.97.83-1.97 1.12-3 .12-.47.18-.96.18-1.45 0-.13-.08-.25-.13-.38-.1.04-.25.06-.3.13-.73 1.01-1.5 2-2.15 3.04a10.1 10.1 0 00-.7 1.75 1.6 1.6 0 01.06-1.1 19.44 19.44 0 001.23-4.82c.1-1.17.16-2.34.15-3.51A1.45 1.45 0 008.03 0c-.13.07-.31.1-.4.21a7.67 7.67 0 00-1.61 3.06c-.4 1.75-.23 3.5.1 5.23l.48 2.4c-.8-.31-1.5-.62-2.2-.84a8.3 8.3 0 00-3.84-.12c-.16.06-.3.14-.44.25.08.15.18.3.3.43a4.9 4.9 0 003.06 1.1c.88.02 1.76-.08 2.61-.31.47-.13.53-.08.63.37.13.55.25 1.1.4 1.65l.34 1.26-.22-.13c-.85-.6-1.9-.87-2.93-.75-1.09.18-2.15.48-3.23.73-.17.03-.34.1-.5.16a.27.27 0 000 .52c.53.26 1.09.48 1.66.65.7.12 1.4.2 2.1.24a6.48 6.48 0 003.36-.58l1.27 3.02a8.03 8.03 0 00-4.37-.37c-1.12.24-2.24.64-3.33.98-.14.04-.25.19-.37.28.11.12.2.3.35.37.68.31 1.4.56 2.12.75.7.1 1.4.15 2.1.15a7.72 7.72 0 003.96-1.08l2.48 4.19c-.38-.15-.81-.34-1.25-.47a14.34 14.34 0 00-5.76-.38c-.7.07-1.4.22-2.11.35-.3.06-.38.2-.18.4.6.64 1.32 1.16 2.12 1.52 1.35.55 2.8.83 4.26.83a5.8 5.8 0 003.52-.94.5.5 0 01.48.05c.8.9 1.59 1.81 2.42 2.77l-.66-.22a9.28 9.28 0 00-2.61-.53c-1.69-.03-3.36.3-4.9.99-.42.17-.86.3-1.29.46l-.28.16c.07.1.13.27.22.31.8.28 1.59.68 2.4.78 1.79.22 3.6.46 5.4.11.92-.17 1.85-.33 2.6-.97l.17-.11c.14.15.29.3.45.42.81.55 1.62 1.12 2.45 1.63l.33.2a.12.12 0 00.04-.06zM9.63 6.05C9.27 7.77 8.9 9.5 7.5 10.78a24.45 24.45 0 012.13-4.73zm-.41-.13c-.7 1.6-1.5 3.4-2.25 5.19-.01-2.14 1.08-3.79 2.24-5.19zm-7.97 4.24c1.4-.2 2.82 0 4.11.56l-4.1-.47v-.1zm-.46.32l5.04.62c-1.2.71-4.23.3-5.04-.62zM6.31 7.9c-.67-2.62 0-6 1.46-7.35-.94 2.35-1.09 4.85-1.46 7.35zm1.5-6.62c.33.91-.41 5.47-1.17 6.87.2-2.3.35-4.62 1.16-6.87zM6.38 14.45c.29.13.56.3.84.46l-.04.13a33.92 33.92 0 00-5.78-.28c1.64-.45 3.27-1.1 4.98-.31zm-5.13.74c.62-.25 4.99-.13 6.07.16-1.17.72-5.15.6-6.07-.16zm6.96-.37a36.46 36.46 0 012.7-6.1c-.5 2.19-1.04 4.38-2.7 6.08v.02zm2.62-6.84l-2.8 6.1c-.1-2.5 1.41-4.27 2.8-6.11v.01zM1.28 19.57c2.33-1.22 6.03-1.66 7.75-.52a3.1 3.1 0 01-.38-.03c-1.3-.23-2.6-.04-3.88.15-.96.15-1.93.29-2.89.42-.2 0-.4-.01-.59-.04v.02zm.94.24c2.3-.28 4.59-.92 6.96-.49-1 .98-4.75 1.61-6.96.49zm10.24-7.98v.35c-.2 1-.37 2.01-.63 3-.27.9-.6 1.8-1 2.66a5.1 5.1 0 01-.74.96l-.22.31c-.03-.15-.11-.32-.07-.44a483.21 483.21 0 012.57-6.85l.1.01zm-.62.43l-2.32 6.1c-.18-2.44.86-4.35 2.32-6.1zm-.22 11.84l-7.84-.55c1.48-.56 6.04-.61 7.84.55zm-1.12 1.5a10 10 0 01-6.39-1.06c-.3-.2-.58-.41-.85-.66l.04-.08 9.03.7c.07 0 .12.09.22.18-.58.5-1.29.81-2.04.91h-.01zm5.18 2.8c-2.76.2-5.51.08-8.34.08 2.81-1.23 5.57-1.37 8.34-.07zm-.21.8c-1.32.48-2.73.7-4.14.63-.6-.04-1.2-.1-1.8-.11a7.56 7.56 0 01-3.05-.77c3.2-.32 6.42.07 9.62-.28 0 .04.02.08.03.11-.2.17-.43.31-.66.43v-.02zM14.77 7.96c-.3.77-.88 1.08-1.54.82a1.25 1.25 0 01-.77-1.57c.24-.6 1.12-1.05 1.71-.83a1.25 1.25 0 01.6 1.58zm-.3-.11a.98.98 0 00-.45-1.19 1.18 1.18 0 00-1.31.63.94.94 0 00.6 1.21c.49.2.93-.06 1.17-.65z" fill="#AE7C78"/>
    <path d="M4.23 7.1a.81.81 0 01.55 1.02 1.01 1.01 0 01-1.32.6.8.8 0 01-.37-1.06.86.86 0 011.14-.56zm-.12.26a.6.6 0 00-.8.38.58.58 0 00.25.74.78.78 0 00.95-.43.56.56 0 00-.4-.67v-.02zM11.9 5.02c.2-.43.47-.62.75-.5a.78.78 0 01.38.95.66.66 0 01-.86.25.48.48 0 01-.27-.7zM3.76 5.27a.54.54 0 01.28.75.64.64 0 01-.75.35c-.25-.1-.33-.4-.2-.73.13-.32.4-.48.67-.37zM1.4 6.6c.13-.38.34-.38.5-.28.16.1.18.28.27.43-.17.1-.36.16-.55.18-.1-.02-.17-.26-.22-.34zM14.11 5.06c-.07-.26-.17-.44-.12-.5.13-.16.29-.28.46-.38.08.18.12.38.13.58 0 .1-.23.16-.47.3zM20.22 16.47c3.06.4 3.95 1.92 3.95 3.48 0 2.2-1.74 3.74-4.64 3.74-.58 0-1.74-.06-3.32-.06-.9 0-1.87.02-2.4.06v-.37c1.31-.06 1.57-.26 1.57-1.66v-9.6c0-1.4-.26-1.6-1.57-1.65v-.38c.54.04 1.5.06 2.36.06 1.22 0 2.45-.04 2.91-.04 2.71-.01 4.1 1.24 4.1 3.03 0 1.37-.78 2.7-2.94 3.37l-.02.02zm-3.05-4.4v4.38h1.3c2.27 0 2.83-1.5 2.83-3.17 0-1.9-.77-2.87-2.7-2.87-1.18 0-1.43.32-1.43 1.65zm5.06 7.8c0-1.97-.99-3.1-3.44-3.1h-1.62v4.88c0 1.35.25 1.6 1.45 1.6 2.53 0 3.61-1.2 3.61-3.38zM34.71 18.73c0 3.71-1.93 5.24-4.38 5.24s-4.39-1.54-4.39-5.24c0-3.69 1.94-5.25 4.4-5.25 2.45 0 4.37 1.54 4.37 5.25zm-6.9 0c0 3.46 1.06 4.86 2.52 4.86 1.47 0 2.5-1.4 2.5-4.86 0-3.46-1.03-4.86-2.5-4.86s-2.51 1.4-2.51 4.86zM42.15 13.76v.38h-2.86v7.47c0 1.22.46 1.64 1.24 1.64.77 0 1.33-.56 1.74-2.07l.38.1c-.27 1.5-.95 2.67-2.51 2.67-.9 0-1.41-.22-1.83-.64-.57-.58-.75-1.33-.75-2.7v-6.46h-1.87v-.38h1.87v-2.95c.59 0 1.17-.1 1.73-.27v3.22h2.86zM49.61 14.2c.62.62.77 1.34.77 2.7v5.38c0 .62.16.92.6.92.33-.02.64-.16.87-.4l.21.33c-.47.45-1.1.7-1.76.7-1.35 0-1.66-.8-1.66-1.7a3.36 3.36 0 01-2.97 1.7c-1.3 0-2.46-.64-2.46-2.15 0-1.51 1.19-2.21 3.12-3.02 1.3-.54 2.31-.87 2.31-1.64V15.8c0-1.62-.8-1.94-1.8-1.94-.65 0-1.47.13-1.9.68a1.2 1.2 0 01.9 1.19 1.01 1.01 0 01-1.12 1.04c-.66 0-1.05-.5-1.05-1.2 0-.56.37-1 .9-1.37.82-.5 1.76-.75 2.71-.73 1.08 0 1.89.28 2.33.72zm-.97 3.6c-.2.3-.63.5-1.85 1.12-.85.4-1.87.96-1.87 2.45 0 1.16.66 1.7 1.55 1.7.77 0 1.52-.4 2.18-1.46v-3.82zM61.18 14.2c.49.53.67 1.22.67 2.54v5.16c0 1.08.41 1.39 1.48 1.39v.4c-.45 0-1.48-.07-2.33-.07-.84 0-1.75.06-2.16.08v-.41c.93 0 1.28-.31 1.28-1.39v-5.58c0-1.2-.17-2.24-1.57-2.24-1.62 0-2.7 1.54-2.7 3.52v4.3c0 1.08.34 1.39 1.28 1.39v.4c-.4 0-1.32-.07-2.17-.07-.85 0-1.87.06-2.32.08v-.41c1.07 0 1.47-.31 1.47-1.39v-6.05c0-1.15-.35-1.7-1.47-1.7v-.4c.4.03.81.05 1.2.05a6.4 6.4 0 002-.27v2.28c.69-1.74 1.98-2.33 3.3-2.33.98 0 1.6.26 2.04.72zM67.39 21.9c0 1.08.4 1.39 1.46 1.39v.4c-.44 0-1.45-.07-2.34-.07-.88 0-1.89.06-2.33.08v-.41c1.06 0 1.47-.31 1.47-1.39v-6.04c0-1.16-.35-1.71-1.47-1.71v-.4c.4.03.81.05 1.2.05a6.4 6.4 0 002-.27v8.37zm.23-11.75a1.24 1.24 0 11-2.47 0 1.24 1.24 0 012.47 0zM78.42 22.28c.44.6.77.93 1.35 1v.42c-.3 0-.98-.08-1.57-.08-.8 0-1.73.06-2.14.08v-.41c.38 0 .6-.15.6-.37-.01-.11-.05-.22-.12-.3l-2.21-3.24c-.47-.66-.78-.82-1.45-.85v3.36c0 1.08.34 1.39 1.27 1.39v.42c-.4 0-1.33-.08-2.15-.08-.88 0-1.89.06-2.33.08v-.41c1.06 0 1.47-.31 1.47-1.39V10.87c0-1.16-.35-1.7-1.47-1.7v-.4c.4.03.8.05 1.2.05.68.02 1.36-.07 2-.28v9.6a2.55 2.55 0 001.67-.8l1.43-1.5c.43-.45.61-.8.61-1.06 0-.47-.61-.66-1.42-.66v-.38c.67.04 1.62.08 2.17.08.65 0 1.3-.04 1.69-.08v.38c-.68.07-1.3.4-1.74.9l-2.35 2.48 3.5 4.78zM86.86 14.2c.62.62.78 1.34.78 2.7v5.38c0 .62.15.92.59.92.33-.02.64-.16.87-.4l.22.33c-.48.45-1.11.7-1.77.7-1.35 0-1.66-.8-1.66-1.7a3.36 3.36 0 01-2.99 1.7c-1.29 0-2.45-.64-2.45-2.15 0-1.51 1.18-2.21 3.11-3.02 1.3-.54 2.31-.87 2.31-1.64V15.8c0-1.62-.8-1.94-1.79-1.94-.66 0-1.47.13-1.91.68a1.2 1.2 0 01.9 1.19 1.01 1.01 0 01-1.12 1.04c-.66 0-1.05-.5-1.05-1.2 0-.56.38-1 .9-1.37.82-.5 1.76-.75 2.71-.73 1.1 0 1.91.28 2.35.72zm-.97 3.6c-.2.3-.63.5-1.85 1.12-.84.4-1.86.96-1.86 2.45 0 1.16.65 1.7 1.54 1.7.77 0 1.53-.4 2.18-1.46l-.01-3.82zM32.63 30.57v1.27h-.34v-.96h-3.42v-3.67h.35v3.36h2.44v-3.36h.35v3.36h.62zM36.63 29.9c0 .64-.45.99-1.4.99h-1.6V27.2h1.56c.81 0 1.3.32 1.3.93a.84.84 0 01-.67.85.85.85 0 01.8.91zM34 28.88h1.18c.63 0 .98-.23.98-.7 0-.45-.35-.69-.98-.69h-1.18v1.4zm2.28 1.02c0-.5-.3-.72-1-.72h-1.28v1.43h1.24c.67-.01 1.04-.23 1.04-.7zM41.03 29.13h-3.16a1.57 1.57 0 002.73.95l.2.23a1.75 1.75 0 01-1.38.6 1.8 1.8 0 01-1.9-1.87 1.76 1.76 0 113.51 0v.1zm-3.16-.28h2.82a1.4 1.4 0 10-2.82 0zM44.48 27.52h-1.44v3.37h-.35v-3.37h-1.44v-.31h3.23v.31zM48.08 29.7c0 .78-.52 1.2-1.48 1.2h-1.37v-3.7h.37v1.33h1.1c.9.02 1.38.43 1.38 1.17zm-.35 0c0-.6-.38-.87-1.13-.89h-1v1.8h1c.74.04 1.13-.3 1.13-.91zm1.02-2.5h.36v3.68h-.36v-3.67zM55.42 29.9c0 .64-.45.99-1.4.99h-1.59V27.2h1.55c.81 0 1.31.32 1.31.93a.84.84 0 01-.68.85.85.85 0 01.8.91zm-2.65-1.01h1.19c.63 0 .98-.24.98-.7 0-.46-.35-.7-.98-.7h-1.19v1.4zm2.3 1.01c0-.5-.3-.72-1-.72h-1.3v1.43h1.25c.68-.01 1.05-.23 1.05-.7zM62.66 25.95v4.93h-.37v-4.6h-3.34v4.6h-.37v-4.93h4.08zM67.45 29.13h-3.16a1.57 1.57 0 002.73.95l.2.23a1.75 1.75 0 01-1.38.6 1.8 1.8 0 01-1.9-1.87 1.76 1.76 0 113.52 0l-.01.1zm-3.16-.28h2.81a1.4 1.4 0 10-2.81 0zM70.9 27.52h-1.45v3.37h-.35v-3.37h-1.45v-.31h3.23l.01.31zM74.61 29.13h-3.16a1.57 1.57 0 002.73.95l.2.23a1.75 1.75 0 01-1.38.6 1.8 1.8 0 01-1.9-1.87 1.76 1.76 0 012.46-1.73 1.74 1.74 0 011.06 1.73l-.01.1zm-3.15-.28h2.81a1.4 1.4 0 00-2.81 0zM79.44 29.05a1.78 1.78 0 01-1.83 1.86 1.64 1.64 0 01-1.49-.86v2.2h-.35v-5.04h.34v.86a1.64 1.64 0 011.49-.89 1.78 1.78 0 011.84 1.87zm-.36 0a1.5 1.5 0 10-1.5 1.55 1.47 1.47 0 001.5-1.55zM84.05 29.07a1.75 1.75 0 01-1.82 1.85c-1.22 0-1.9-.95-1.9-2.4 0-1.67.6-2.4 1.84-2.7l1.64-.4.05.33-1.55.37c-1.12.26-1.61.84-1.64 2.24a1.65 1.65 0 011.62-1.09 1.7 1.7 0 011.76 1.8zm-.38 0a1.45 1.45 0 10-2.9 0 1.45 1.45 0 102.9 0zM88.09 27.2l-1.89 4.2c-.3.67-.66.89-1.15.89a1.17 1.17 0 01-.85-.33l.18-.27a.89.89 0 00.68.29c.34 0 .58-.15.81-.66l.2-.44-1.66-3.66h.38l1.47 3.29 1.47-3.3h.36zM92.61 29.05a1.77 1.77 0 01-1.82 1.86 1.65 1.65 0 01-1.5-.86v2.2h-.33v-5.04h.34v.86a1.64 1.64 0 011.49-.89 1.78 1.78 0 011.82 1.87zm-.35 0a1.5 1.5 0 10-1.5 1.55 1.47 1.47 0 001.5-1.55zM96.27 27.52h-2.16v3.37h-.35V27.2h2.51v.31zM100 29.13h-3.17a1.57 1.57 0 002.73.95l.2.23a1.76 1.76 0 01-1.38.6 1.8 1.8 0 01-1.9-1.87 1.76 1.76 0 011.77-1.87 1.74 1.74 0 011.75 1.87v.1zm-3.16-.28h2.81a1.4 1.4 0 00-2.81 0z" fill="#AE7C78"/>
  </g>
  <defs>
    <clipPath id="clip0">
      <path fill="#fff" d="M0 0h100v32.28H0z"/>
    </clipPath>
  </defs>
</svg>
