<svg width="21" height="20" fill="none" xmlns="http://www.w3.org/2000/svg">
  <path d="M5.85 0A5.83 5.83 0 000 5.8v8.4C0 17.4 2.62 20 5.85 20h8.5c3.23 0 5.85-2.6 5.85-5.8V5.8c0-3.2-2.62-5.8-5.85-5.8h-8.5zm0 1.72h8.5c2.3 0 4.12 1.8 4.12 4.08v8.4a4.07 4.07 0 01-4.12 4.08h-8.5c-2.3 0-4.12-1.8-4.12-4.08V5.8a4.07 4.07 0 014.12-4.08zm9.67 1.72a1.2 1.2 0 00-1.21 1.2 1.2 1.2 0 002.42 0c0-.66-.54-1.2-1.21-1.2zM10.1 4.85A5.18 5.18 0 004.9 10a5.18 5.18 0 0010.38 0 5.18 5.18 0 00-5.2-5.15zm0 1.72a3.43 3.43 0 110 6.86 3.43 3.43 0 110-6.86z" fill="#D89999"/>
</svg>
