<svg width="70" height="52" fill="none" xmlns="http://www.w3.org/2000/svg">
  <path d="M22 14.73H10.24a2.57 2.57 0 00-2.57 2.57v9.29a2.57 2.57 0 002.57 2.57H22a2.57 2.57 0 002.57-2.57V17.3A2.57 2.57 0 0022 14.73zm.52 2.57v3.62h-5.37v-4.14H22c.29 0 .52.24.52.52zM9.72 26.6V17.3c0-.28.24-.52.52-.52h4.86v10.33h-4.86a.52.52 0 01-.52-.52zM22 27.1h-4.85v-4.14h5.37v3.62c0 .28-.23.52-.52.52zM7.67 41c0 .56.46 1.02 1.03 1.02h30.14a1.02 1.02 0 100-2.05H8.7c-.57 0-1.03.46-1.03 1.02zM8.7 43.87a1.02 1.02 0 100 2.05h15.07a1.02 1.02 0 100-2.05H8.7zM26.89 36.1v-2.47a1.02 1.02 0 10-2.05 0v2.47a1.02 1.02 0 102.05 0zM31.57 36.1v-2.47a1.02 1.02 0 10-2.05 0v2.47a1.02 1.02 0 102.05 0zM36.25 36.1v-2.47a1.02 1.02 0 10-2.05 0v2.47a1.02 1.02 0 102.05 0zM40.93 36.1v-2.47a1.02 1.02 0 10-2.04 0v2.47a1.02 1.02 0 102.04 0zM46.69 33.63v2.47a1.02 1.02 0 002.05 0v-2.47a1.02 1.02 0 10-2.05 0zM51.37 33.63v2.47a1.02 1.02 0 002.05 0v-2.47a1.02 1.02 0 10-2.05 0zM56.05 33.63v2.47a1.02 1.02 0 002.05 0v-2.47a1.02 1.02 0 10-2.05 0zM8.7 37.13c.56 0 1.02-.46 1.02-1.03v-2.47a1.02 1.02 0 10-2.05 0v2.47c0 .57.46 1.03 1.03 1.03zM14.4 36.1v-2.47a1.02 1.02 0 10-2.04 0v2.47a1.02 1.02 0 002.04 0zM19.09 36.1v-2.47a1.02 1.02 0 10-2.05 0v2.47a1.02 1.02 0 002.05 0z" fill="#AE7C78"/>
  <path d="M69.93 10.4a10.42 10.42 0 00-20.66-1.75h-26.5a1.02 1.02 0 100 2.05h26.35a10.43 10.43 0 0010.4 10.11c1.5 0 2.95-.33 4.2-.88v17.22a1.02 1.02 0 102.06 0V18.72a10.4 10.4 0 004.15-8.31zm-10.4-8.35a8.37 8.37 0 010 16.71 8.36 8.36 0 010-16.71z" fill="#AE7C78"/>
  <path d="M56.69 14.35c.34.56 1.13.65 1.6.19L64.9 7.9a1.02 1.02 0 00-1.45-1.45l-5.7 5.71-2.22-3.58a1.02 1.02 0 00-1.74 1.08l2.89 4.68zM64.75 40.91c-.56 0-1.02.46-1.02 1.02v4.23c0 2.09-1.7 3.8-3.8 3.8H5.84a3.8 3.8 0 01-3.8-3.8V14.49c0-2.09 1.71-3.8 3.8-3.8h12.14a1.02 1.02 0 100-2.04H5.84A5.85 5.85 0 000 14.5v31.67A5.85 5.85 0 005.84 52h54.1a5.85 5.85 0 005.84-5.84v-4.23c0-.56-.46-1.02-1.03-1.02z" fill="#AE7C78"/>
  <path d="M59.34 27.58v-3.03c0-.86-.7-1.57-1.57-1.57H47.3c-.87 0-1.58.7-1.58 1.57v3.03c0 .87.7 1.58 1.58 1.58h10.46c.86 0 1.57-.7 1.57-1.58zm-2.05-.47h-9.51v-2.08h9.51v2.08z" fill="#AE7C78"/>
</svg>
