<svg width="59" height="52" fill="none" xmlns="http://www.w3.org/2000/svg">
  <path d="M51.68 9.19h-2.72a.86.86 0 100 1.72h2.72a.86.86 0 100-1.72zM36.4 13.33a8.72 8.72 0 000 17.41 8.72 8.72 0 000-17.41zm0 15.7a7 7 0 11.02-14 7 7 0 01-.01 14z" fill="#AE7C78"/>
  <path d="M55.38 4.6H44.95l-1-2.78C43.77 1.37 43.28 0 41.88 0H28.53c-1.4 0-1.89 1.37-2.05 1.82L25.47 4.6h-8.5V2.53c0-1.13-.91-2.05-2.04-2.05H11.1c-1.12 0-2.04.92-2.04 2.05v2.11a3.22 3.22 0 00-2.73 3.18v17.56l-3.89.75a3.02 3.02 0 00-2.38 3.54L3.9 49.56a3.03 3.03 0 003.54 2.39l8.38-1.63a.86.86 0 10-.32-1.69l-8.39 1.63a1.3 1.3 0 01-1.53-1.03L1.74 29.35a1.3 1.3 0 011.03-1.53l20.9-4.06c.34-.06.69.01.98.2.29.2.49.5.55.84l3.86 19.88a1.3 1.3 0 01-1.03 1.53l-8.39 1.62a.86.86 0 00.33 1.69l8.39-1.63a3.02 3.02 0 002.38-3.54l-1.04-5.38h9.58a.86.86 0 100-1.71h-9.91l-.9-4.66a13.22 13.22 0 0020.38-6.11h8.03v9.27c0 .82-.67 1.5-1.5 1.5h-11.9a.86.86 0 100 1.71h11.9a3.22 3.22 0 003.22-3.21V7.82a3.22 3.22 0 00-3.22-3.21zM28.1 2.4c.17-.45.31-.68.44-.68H41.9c.16 0 .33.37.44.68l.8 2.2H27.29l.8-2.2zm-4.9 19.64v.07l-6.21 1.2v-4h6.5c-.19.88-.29 1.8-.29 2.73zM10.77 2.54c0-.19.16-.34.33-.34h3.83c.18 0 .33.15.33.33v2.08h-4.49V2.53zM8.05 7.81c0-.82.67-1.5 1.5-1.5h5.71v17.33l-2.9.56v-9.68c0-.82-.68-1.5-1.5-1.5H8.05v-5.2zm0 6.93h2.59v9.8l-2.6.5v-10.3zM36.4 33.54a11.5 11.5 0 01-8.5-3.75l-1.02-5.32a3 3 0 00-1.98-2.28v-.15c0-6.34 5.16-11.5 11.5-11.5s11.5 5.16 11.5 11.5-5.16 11.5-11.5 11.5zm20.47-8.77h-7.54a13.21 13.21 0 000-5.46h7.54v5.46zm0-7.18h-8.03a13.24 13.24 0 00-12.44-8.77 13.24 13.24 0 00-12.45 8.77h-6.98V6.32h38.4c.83 0 1.5.68 1.5 1.5v9.77z" fill="#AE7C78"/>
  <path d="M26 43.46c.2-.3.28-.65.2-.99l-2.9-14.66c-.16-.76-.96-1.23-1.83-1.07l-15.92 3.1c-.87.16-1.44.9-1.3 1.68l2.93 14.65c.06.33.26.63.56.84a1.64 1.64 0 001.26.23l15.92-3.08c.45-.1.85-.34 1.08-.7zm-18.36-3.8L6 31.49l15.67-3.04.95 4.78-2 .4c-3.84.73-5.11 1.88-6.34 2.99-1.2 1.07-2.42 2.18-6.64 3.04zm1.16 5.87l-.4-2.06-.42-2.13c4.68-.95 6.15-2.27 7.45-3.44 1.15-1.04 2.15-1.94 5.5-2.6l2.02-.39 1.51 7.59L8.8 45.53z" fill="#AE7C78"/>
</svg>
