<svg width="82" height="52" fill="none" xmlns="http://www.w3.org/2000/svg">
  <path d="M80.67 24a5.65 5.65 0 00-3.35-1.92l-.63-8.52c.62 0 1.15-.45 1.25-1.07l.25-1.37a4.86 4.86 0 00-1-3.98 4.67 4.67 0 00-3.65-1.65H64.1l.46-2.6a2.48 2.48 0 00-.52-2.04A2.43 2.43 0 0062.18 0h-46.4a3 3 0 00-2.88 2.44L8.8 25.78a1.29 1.29 0 102.53.44l4.1-23.34c.03-.15.23-.3.35-.3h46.24l-4.08 23.2a1.29 1.29 0 102.52.44l.3-1.68h15.35c1.07 0 1.99.4 2.59 1.12.41.5.66 1.11.72 1.8h-4.27c-.62 0-1.16.45-1.26 1.06l-.49 2.75c-.2 1.1.08 2.2.76 3 .66.8 1.67 1.25 2.76 1.25h1.21l-1 5.67h-3.38a6.77 6.77 0 00-6.9-5.5c-3.52 0-6.91 2.32-8.5 5.5h-.52l1.67-9.47a1.29 1.29 0 10-2.53-.45l-1.74 9.92H31.46a6.77 6.77 0 00-6.9-5.5c-3.51 0-6.91 2.32-8.5 5.5H8.7l.5-2.92h5.78a1.29 1.29 0 000-2.57H1.28a1.29 1.29 0 000 2.57H6.6l-.46 2.6c-.13.75.06 1.49.52 2.04.45.54 1.14.85 1.87.85h6.7a7.13 7.13 0 001.48 5.8A6.94 6.94 0 0022.15 52c4.37 0 8.55-3.56 9.32-7.93l.05-.3h26a7.13 7.13 0 001.48 5.8A6.94 6.94 0 0064.44 52c4.37 0 8.55-3.56 9.32-7.93l.05-.3h4.4c.63 0 1.16-.46 1.27-1.07l2.41-13.73A5.98 5.98 0 0080.67 24zM61.2 21.98l1.48-8.41h11.43l.62 8.4H61.2zm14.45-11.3l-.06.31H63.15l.5-2.91h9.89c.7 0 1.3.25 1.69.72.4.48.56 1.15.43 1.88zM28.94 43.62a7.2 7.2 0 01-6.79 5.8 4.42 4.42 0 01-3.47-1.5 4.62 4.62 0 01-.9-3.85 7.2 7.2 0 016.79-5.8c1.42 0 2.65.54 3.47 1.51.84 1 1.16 2.37.9 3.84zm42.3 0a7.2 7.2 0 01-6.8 5.8 4.42 4.42 0 01-3.47-1.5 4.62 4.62 0 01-.9-3.85 7.2 7.2 0 016.78-5.8c1.43 0 2.66.54 3.48 1.51.84 1 1.16 2.37.9 3.84zm7.35-10.67h-1.67a1 1 0 01-.8-.33 1.1 1.1 0 01-.19-.9l.3-1.69h2.87l-.51 2.92z" fill="#AE7C78"/>
  <path d="M25.47 42.04a2.43 2.43 0 00-1.87-.85 3 3 0 00-2.88 2.43c-.13.75.06 1.49.52 2.03.46.55 1.14.86 1.88.86a3 3 0 002.87-2.44 2.48 2.48 0 00-.52-2.03zM67.76 42.04a2.43 2.43 0 00-1.87-.85A3 3 0 0063 43.62c-.13.75.06 1.49.52 2.03.46.55 1.14.86 1.88.86a3 3 0 002.87-2.44 2.48 2.48 0 00-.52-2.03zM51.79 35.7H35.52a1.29 1.29 0 000 2.57H51.8a1.29 1.29 0 000-2.57zM28.67 30.2H5a1.29 1.29 0 000 2.58h23.68a1.29 1.29 0 000-2.58zM53.2 25.03l-4.76-4.12a1.28 1.28 0 00-1.81.13c-.47.54-.4 1.35.13 1.82l2.14 1.85H16.35a1.29 1.29 0 000 2.58h31.74l-2.65 1.76a1.29 1.29 0 001.42 2.14l6.2-4.12a1.29 1.29 0 00.13-2.04z" fill="#AE7C78"/>
</svg>
