<svg width="26" height="20" fill="none" xmlns="http://www.w3.org/2000/svg">
  <path d="M25.76 2.37c-.95.4-1.97.67-3.04.8a5.11 5.11 0 002.33-2.8c-1.02.58-2.15 1-3.36 1.22A5.4 5.4 0 0017.83 0a5.17 5.17 0 00-5.28 5.05c0 .4.05.78.14 1.15A15.25 15.25 0 011.79.92a4.85 4.85 0 00-.71 2.54 5 5 0 002.35 4.2 5.44 5.44 0 01-2.4-.63v.07a5.12 5.12 0 004.24 4.95 5.52 5.52 0 01-2.38.08c.67 2.01 2.62 3.47 4.94 3.51A10.93 10.93 0 010 17.74 15.47 15.47 0 008.1 20 14.59 14.59 0 0023.12 4.98a10.5 10.5 0 002.64-2.61" fill="#D89999"/>
</svg>
